<svg width="20" height="20" viewBox="0 0 20 20" fill="none" xmlns="http://www.w3.org/2000/svg">
<path d="M16.4 7C16.4 7 16.1438 7.53388 15.6 8.21152M15.6 8.21152C15.0828 8.85616 14.3054 9.63096 13.2411 10.2M15.6 8.21152L18 9.4M10 11C8.7136 11 7.63829 10.6702 6.75889 10.2M10 11C11.2864 11 12.3617 10.6702 13.2411 10.2M10 11V13.8M6.75889 10.2L4.4 12.6M6.75889 10.2C5.75136 9.66128 5.00099 8.93824 4.48502 8.31584M13.2411 10.2L15.2 12.6M3.6 7C3.6 7 3.88294 7.58946 4.48502 8.31584M4.48502 8.31584L2 9.4" stroke="#94A3B8" stroke-width="2" stroke-linecap="round" stroke-linejoin="round"/>
</svg>
