<svg width="16" height="16" viewBox="0 0 16 16" fill="none" xmlns="http://www.w3.org/2000/svg">
<path fill-rule="evenodd" clip-rule="evenodd" d="M8 16C12.4183 16 16 12.4183 16 8C16 3.58172 12.4183 0 8 0C3.58172 0 0 3.58172 0 8C0 12.4183 3.58172 16 8 16ZM10.2164 4.30602C10.6244 3.89799 11.2859 3.89799 11.694 4.30602C12.102 4.71405 12.102 5.37559 11.694 5.78361L9.47758 8L11.694 10.2164C12.102 10.6244 12.102 11.286 11.694 11.694C11.2859 12.102 10.6244 12.102 10.2164 11.694L7.99999 9.47759L5.78361 11.694C5.37558 12.102 4.71404 12.102 4.30602 11.694C3.89799 11.286 3.89799 10.6244 4.30602 10.2164L6.5224 8L4.30602 5.78361C3.89799 5.37559 3.89799 4.71405 4.30602 4.30602C4.71404 3.898 5.37558 3.898 5.78361 4.30602L7.99999 6.52241L10.2164 4.30602Z" fill="#94A3B8"/>
</svg>
