<svg width="20" height="20" viewBox="0 0 20 20" fill="none" xmlns="http://www.w3.org/2000/svg">
<path fill-rule="evenodd" clip-rule="evenodd" d="M10 18C14.4183 18 18 14.4183 18 10C18 5.58172 14.4183 2 10 2C5.58172 2 2 5.58172 2 10C2 14.4183 5.58172 18 10 18ZM12.2164 6.30602C12.6244 5.89799 13.2859 5.89799 13.694 6.30602C14.102 6.71405 14.102 7.37559 13.694 7.78361L11.4776 10L13.694 12.2164C14.102 12.6244 14.102 13.286 13.694 13.694C13.2859 14.102 12.6244 14.102 12.2164 13.694L9.99999 11.4776L7.78361 13.694C7.37558 14.102 6.71404 14.102 6.30602 13.694C5.89799 13.286 5.89799 12.6244 6.30602 12.2164L8.5224 10L6.30602 7.78361C5.89799 7.37559 5.89799 6.71405 6.30602 6.30602C6.71404 5.898 7.37558 5.898 7.78361 6.30602L9.99999 8.52241L12.2164 6.30602Z" fill="#94A3B8"/>
</svg>
