<svg width="18" height="13" viewBox="0 0 18 13" fill="none" xmlns="http://www.w3.org/2000/svg">
<path d="M15.4001 7.7998C15.4001 7.7998 15.1439 8.33368 14.6001 9.01132C14.0829 9.65596 13.3055 10.4308 12.2412 10.9998C11.3618 11.47 10.2865 11.7998 9.0001 11.7998C7.7137 11.7998 6.63839 11.47 5.75899 10.9998C4.75146 10.4611 4.00109 9.73804 3.48512 9.11564C2.88303 8.38926 2.6001 7.7998 2.6001 7.7998" stroke="#94A3B8" stroke-width="2" stroke-linecap="round" stroke-linejoin="round"/>
<path d="M15.4 7.7998C15.4 7.7998 15.1438 7.26593 14.6 6.58829M14.6 6.58829C14.0828 5.94365 13.3054 5.16884 12.2411 4.5998M14.6 6.58829L17 5.39981M9 3.7998C7.7136 3.7998 6.63829 4.12956 5.75889 4.5998M9 3.7998C10.2864 3.7998 11.3617 4.12956 12.2411 4.5998M9 3.7998V0.999805M5.75889 4.5998L3.4 2.19981M5.75889 4.5998C4.75136 5.13852 4.00099 5.86156 3.48502 6.48396M12.2411 4.5998L14.2 2.19981M2.6 7.7998C2.6 7.7998 2.88294 7.21035 3.48502 6.48396M3.48502 6.48396L1 5.39981" stroke="#94A3B8" stroke-width="2" stroke-linecap="round" stroke-linejoin="round"/>
<circle cx="9" cy="7.7998" r="2" fill="#94A3B8"/>
</svg>
