<svg width="139" height="40" viewBox="0 0 139 40" fill="none" xmlns="http://www.w3.org/2000/svg">
<path d="M4.74097 10.0714L11.745 30.0714" stroke="#007EA8" stroke-width="8" stroke-linecap="round" stroke-linejoin="bevel"/>
<path d="M18.749 10L25.753 30" stroke="#00A4DB" stroke-width="8" stroke-linecap="round" stroke-linejoin="bevel"/>
<path d="M32.7571 10L36.2591 20" stroke="#42D0FF" stroke-width="8" stroke-linecap="round" stroke-linejoin="bevel"/>
<path d="M60.5966 16L57.3125 4.36364H59.5795L61.6761 12.9148H61.7841L64.0227 4.36364H66.0852L68.3295 12.9205H68.4318L70.5284 4.36364H72.7955L69.5114 16H67.4318L65.1023 7.83523H65.0114L62.6761 16H60.5966ZM77.0824 16.1705C76.2301 16.1705 75.4915 15.983 74.8665 15.608C74.2415 15.233 73.7566 14.7083 73.4119 14.0341C73.071 13.3598 72.9006 12.572 72.9006 11.6705C72.9006 10.7689 73.071 9.97917 73.4119 9.30114C73.7566 8.62311 74.2415 8.09659 74.8665 7.72159C75.4915 7.34659 76.2301 7.15909 77.0824 7.15909C77.9347 7.15909 78.6733 7.34659 79.2983 7.72159C79.9233 8.09659 80.4063 8.62311 80.7472 9.30114C81.0919 9.97917 81.2642 10.7689 81.2642 11.6705C81.2642 12.572 81.0919 13.3598 80.7472 14.0341C80.4063 14.7083 79.9233 15.233 79.2983 15.608C78.6733 15.983 77.9347 16.1705 77.0824 16.1705ZM77.0938 14.5227C77.5559 14.5227 77.9422 14.3958 78.2528 14.142C78.5634 13.8845 78.7945 13.5398 78.946 13.108C79.1013 12.6761 79.179 12.1951 79.179 11.6648C79.179 11.1307 79.1013 10.6477 78.946 10.2159C78.7945 9.7803 78.5634 9.43371 78.2528 9.17614C77.9422 8.91856 77.5559 8.78977 77.0938 8.78977C76.6203 8.78977 76.2263 8.91856 75.9119 9.17614C75.6013 9.43371 75.3684 9.7803 75.2131 10.2159C75.0616 10.6477 74.9858 11.1307 74.9858 11.6648C74.9858 12.1951 75.0616 12.6761 75.2131 13.108C75.3684 13.5398 75.6013 13.8845 75.9119 14.142C76.2263 14.3958 76.6203 14.5227 77.0938 14.5227ZM83.0099 16V7.27273H85.0043V8.72727H85.0952C85.2543 8.22348 85.527 7.83523 85.9134 7.5625C86.3035 7.28598 86.7486 7.14773 87.2486 7.14773C87.3622 7.14773 87.4891 7.15341 87.6293 7.16477C87.7732 7.17235 87.8925 7.18561 87.9872 7.20455V9.09659C87.9001 9.06629 87.7618 9.03977 87.5724 9.01705C87.3868 8.99053 87.2069 8.97727 87.0327 8.97727C86.6577 8.97727 86.3205 9.05871 86.0213 9.22159C85.7259 9.38068 85.4929 9.60227 85.3224 9.88636C85.152 10.1705 85.0668 10.4981 85.0668 10.8693V16H83.0099ZM91.2287 13.2614L91.223 10.7784H91.5526L94.6889 7.27273H97.0923L93.2344 11.5682H92.8082L91.2287 13.2614ZM89.3537 16V4.36364H91.4105V16H89.3537ZM94.831 16L91.9901 12.0284L93.3764 10.5795L97.2912 16H94.831ZM100.52 4.36364V16H98.4631V4.36364H100.52ZM106.442 16.1705C105.589 16.1705 104.851 15.983 104.226 15.608C103.601 15.233 103.116 14.7083 102.771 14.0341C102.43 13.3598 102.26 12.572 102.26 11.6705C102.26 10.7689 102.43 9.97917 102.771 9.30114C103.116 8.62311 103.601 8.09659 104.226 7.72159C104.851 7.34659 105.589 7.15909 106.442 7.15909C107.294 7.15909 108.033 7.34659 108.658 7.72159C109.283 8.09659 109.766 8.62311 110.107 9.30114C110.451 9.97917 110.624 10.7689 110.624 11.6705C110.624 12.572 110.451 13.3598 110.107 14.0341C109.766 14.7083 109.283 15.233 108.658 15.608C108.033 15.983 107.294 16.1705 106.442 16.1705ZM106.453 14.5227C106.915 14.5227 107.302 14.3958 107.612 14.142C107.923 13.8845 108.154 13.5398 108.305 13.108C108.461 12.6761 108.538 12.1951 108.538 11.6648C108.538 11.1307 108.461 10.6477 108.305 10.2159C108.154 9.7803 107.923 9.43371 107.612 9.17614C107.302 8.91856 106.915 8.78977 106.453 8.78977C105.98 8.78977 105.586 8.91856 105.271 9.17614C104.961 9.43371 104.728 9.7803 104.572 10.2159C104.421 10.6477 104.345 11.1307 104.345 11.6648C104.345 12.1951 104.421 12.6761 104.572 13.108C104.728 13.5398 104.961 13.8845 105.271 14.142C105.586 14.3958 105.98 14.5227 106.453 14.5227ZM114.881 16.1761C114.328 16.1761 113.83 16.0777 113.386 15.8807C112.947 15.6799 112.598 15.3845 112.341 14.9943C112.087 14.6042 111.96 14.1231 111.96 13.5511C111.96 13.0587 112.051 12.6515 112.233 12.3295C112.415 12.0076 112.663 11.75 112.977 11.5568C113.292 11.3636 113.646 11.2178 114.04 11.1193C114.438 11.017 114.848 10.9432 115.273 10.8977C115.784 10.8447 116.199 10.7973 116.517 10.7557C116.835 10.7102 117.066 10.642 117.21 10.5511C117.358 10.4564 117.432 10.3106 117.432 10.1136V10.0795C117.432 9.65152 117.305 9.32008 117.051 9.08523C116.797 8.85038 116.432 8.73295 115.955 8.73295C115.451 8.73295 115.051 8.8428 114.756 9.0625C114.464 9.2822 114.267 9.54167 114.165 9.84091L112.244 9.56818C112.396 9.03788 112.646 8.5947 112.994 8.23864C113.343 7.87879 113.769 7.60985 114.273 7.43182C114.777 7.25 115.333 7.15909 115.943 7.15909C116.364 7.15909 116.782 7.20833 117.199 7.30682C117.616 7.4053 117.996 7.56818 118.341 7.79545C118.686 8.01894 118.962 8.32386 119.17 8.71023C119.383 9.09659 119.489 9.57955 119.489 10.1591V16H117.511V14.8011H117.443C117.318 15.0436 117.142 15.2708 116.915 15.483C116.691 15.6913 116.409 15.8598 116.068 15.9886C115.731 16.1136 115.335 16.1761 114.881 16.1761ZM115.415 14.6648C115.828 14.6648 116.186 14.5833 116.489 14.4205C116.792 14.2538 117.025 14.0341 117.188 13.7614C117.354 13.4886 117.438 13.1913 117.438 12.8693V11.8409C117.373 11.8939 117.263 11.9432 117.108 11.9886C116.956 12.0341 116.786 12.0739 116.597 12.108C116.407 12.142 116.22 12.1723 116.034 12.1989C115.848 12.2254 115.688 12.2481 115.551 12.267C115.244 12.3087 114.97 12.3769 114.727 12.4716C114.485 12.5663 114.294 12.6989 114.153 12.8693C114.013 13.036 113.943 13.2519 113.943 13.517C113.943 13.8958 114.081 14.1818 114.358 14.375C114.634 14.5682 114.987 14.6648 115.415 14.6648ZM124.795 16.1534C124.11 16.1534 123.496 15.9773 122.955 15.625C122.413 15.2727 121.985 14.7614 121.67 14.0909C121.356 13.4205 121.199 12.6061 121.199 11.6477C121.199 10.678 121.358 9.85985 121.676 9.19318C121.998 8.52273 122.432 8.01705 122.977 7.67614C123.523 7.33144 124.131 7.15909 124.801 7.15909C125.313 7.15909 125.733 7.24621 126.062 7.42045C126.392 7.59091 126.653 7.79735 126.847 8.03977C127.04 8.27841 127.189 8.50379 127.295 8.71591H127.381V4.36364H129.443V16H127.42V14.625H127.295C127.189 14.8371 127.036 15.0625 126.835 15.3011C126.634 15.536 126.369 15.7367 126.04 15.9034C125.71 16.0701 125.295 16.1534 124.795 16.1534ZM125.369 14.4659C125.805 14.4659 126.176 14.3485 126.483 14.1136C126.79 13.875 127.023 13.5436 127.182 13.1193C127.341 12.6951 127.42 12.2008 127.42 11.6364C127.42 11.072 127.341 10.5814 127.182 10.1648C127.027 9.74811 126.795 9.42424 126.489 9.19318C126.186 8.96212 125.813 8.84659 125.369 8.84659C124.911 8.84659 124.528 8.96591 124.222 9.20455C123.915 9.44318 123.684 9.77273 123.528 10.1932C123.373 10.6136 123.295 11.0947 123.295 11.6364C123.295 12.1818 123.373 12.6686 123.528 13.0966C123.688 13.5208 123.92 13.8561 124.227 14.1023C124.538 14.3447 124.919 14.4659 125.369 14.4659ZM57.6364 26.1307V24.3636H66.9205V26.1307H63.3239V36H61.233V26.1307H57.6364ZM67.7131 36V27.2727H69.7074V28.7273H69.7983C69.9574 28.2235 70.2301 27.8352 70.6165 27.5625C71.0066 27.286 71.4517 27.1477 71.9517 27.1477C72.0653 27.1477 72.1922 27.1534 72.3324 27.1648C72.4763 27.1723 72.5956 27.1856 72.6903 27.2045V29.0966C72.6032 29.0663 72.465 29.0398 72.2756 29.017C72.09 28.9905 71.91 28.9773 71.7358 28.9773C71.3608 28.9773 71.0237 29.0587 70.7244 29.2216C70.429 29.3807 70.196 29.6023 70.0256 29.8864C69.8551 30.1705 69.7699 30.4981 69.7699 30.8693V36H67.7131ZM76.4119 36.1761C75.8589 36.1761 75.3608 36.0777 74.9176 35.8807C74.4782 35.6799 74.1297 35.3845 73.8722 34.9943C73.6184 34.6042 73.4915 34.1231 73.4915 33.5511C73.4915 33.0587 73.5824 32.6515 73.7642 32.3295C73.946 32.0076 74.1941 31.75 74.5085 31.5568C74.8229 31.3636 75.1771 31.2178 75.571 31.1193C75.9688 31.017 76.3797 30.9432 76.804 30.8977C77.3153 30.8447 77.7301 30.7973 78.0483 30.7557C78.3665 30.7102 78.5975 30.642 78.7415 30.5511C78.8892 30.4564 78.9631 30.3106 78.9631 30.1136V30.0795C78.9631 29.6515 78.8362 29.3201 78.5824 29.0852C78.3286 28.8504 77.9631 28.733 77.4858 28.733C76.982 28.733 76.5824 28.8428 76.2869 29.0625C75.9953 29.2822 75.7983 29.5417 75.696 29.8409L73.7756 29.5682C73.9271 29.0379 74.1771 28.5947 74.5256 28.2386C74.8741 27.8788 75.3002 27.6098 75.804 27.4318C76.3078 27.25 76.8646 27.1591 77.4744 27.1591C77.8949 27.1591 78.3134 27.2083 78.7301 27.3068C79.1468 27.4053 79.5275 27.5682 79.8722 27.7955C80.2169 28.0189 80.4934 28.3239 80.7017 28.7102C80.9138 29.0966 81.0199 29.5795 81.0199 30.1591V36H79.0426V34.8011H78.9744C78.8494 35.0436 78.6733 35.2708 78.446 35.483C78.2225 35.6913 77.9403 35.8598 77.5994 35.9886C77.2623 36.1136 76.8665 36.1761 76.4119 36.1761ZM76.946 34.6648C77.3589 34.6648 77.7169 34.5833 78.0199 34.4205C78.3229 34.2538 78.5559 34.0341 78.7188 33.7614C78.8854 33.4886 78.9688 33.1913 78.9688 32.8693V31.8409C78.9044 31.8939 78.7945 31.9432 78.6392 31.9886C78.4877 32.0341 78.3172 32.0739 78.1278 32.108C77.9384 32.142 77.7509 32.1723 77.5653 32.1989C77.3797 32.2254 77.2188 32.2481 77.0824 32.267C76.7756 32.3087 76.5009 32.3769 76.2585 32.4716C76.0161 32.5663 75.8248 32.6989 75.6847 32.8693C75.5445 33.036 75.4744 33.2519 75.4744 33.517C75.4744 33.8958 75.6127 34.1818 75.8892 34.375C76.1657 34.5682 76.518 34.6648 76.946 34.6648ZM86.8949 36.1705C86.0237 36.1705 85.2756 35.9792 84.6506 35.5966C84.0294 35.214 83.5502 34.6856 83.2131 34.0114C82.8797 33.3333 82.7131 32.553 82.7131 31.6705C82.7131 30.7841 82.8835 30.0019 83.2244 29.3239C83.5653 28.642 84.0464 28.1117 84.6676 27.733C85.2926 27.3504 86.0313 27.1591 86.8835 27.1591C87.5919 27.1591 88.2188 27.2898 88.7642 27.5511C89.3134 27.8087 89.7509 28.1742 90.0767 28.6477C90.4025 29.1174 90.5881 29.6667 90.6335 30.2955H88.6676C88.5881 29.875 88.3987 29.5246 88.0994 29.2443C87.804 28.9602 87.4081 28.8182 86.9119 28.8182C86.4915 28.8182 86.1222 28.9318 85.804 29.1591C85.4858 29.3826 85.2377 29.7045 85.0597 30.125C84.8854 30.5455 84.7983 31.0492 84.7983 31.6364C84.7983 32.2311 84.8854 32.7424 85.0597 33.1705C85.2339 33.5947 85.4782 33.9223 85.7926 34.1534C86.1108 34.3807 86.4839 34.4943 86.9119 34.4943C87.215 34.4943 87.4858 34.4375 87.7244 34.3239C87.9669 34.2064 88.1695 34.0379 88.3324 33.8182C88.4953 33.5985 88.607 33.3314 88.6676 33.017H90.6335C90.5843 33.6345 90.4025 34.1818 90.0881 34.6591C89.7737 35.1326 89.3456 35.5038 88.804 35.7727C88.2623 36.0379 87.6259 36.1705 86.8949 36.1705ZM94.1974 33.2614L94.1918 30.7784H94.5213L97.6577 27.2727H100.061L96.2031 31.5682H95.777L94.1974 33.2614ZM92.3224 36V24.3636H94.3793V36H92.3224ZM97.7997 36L94.9588 32.0284L96.3452 30.5795L100.26 36H97.7997ZM101.432 36V27.2727H103.489V36H101.432ZM102.466 26.0341C102.14 26.0341 101.86 25.9261 101.625 25.7102C101.39 25.4905 101.273 25.2273 101.273 24.9205C101.273 24.6098 101.39 24.3466 101.625 24.1307C101.86 23.911 102.14 23.8011 102.466 23.8011C102.795 23.8011 103.076 23.911 103.307 24.1307C103.542 24.3466 103.659 24.6098 103.659 24.9205C103.659 25.2273 103.542 25.4905 103.307 25.7102C103.076 25.9261 102.795 26.0341 102.466 26.0341ZM107.661 30.8864V36H105.604V27.2727H107.57V28.7557H107.672C107.873 28.267 108.193 27.8788 108.632 27.5909C109.075 27.303 109.623 27.1591 110.274 27.1591C110.876 27.1591 111.401 27.2879 111.848 27.5455C112.299 27.803 112.647 28.1761 112.893 28.6648C113.143 29.1534 113.267 29.7462 113.263 30.4432V36H111.206V30.7614C111.206 30.178 111.054 29.7216 110.751 29.392C110.452 29.0625 110.037 28.8977 109.507 28.8977C109.147 28.8977 108.827 28.9773 108.547 29.1364C108.27 29.2917 108.053 29.517 107.893 29.8125C107.738 30.108 107.661 30.4659 107.661 30.8864ZM119.149 39.4545C118.411 39.4545 117.776 39.3542 117.246 39.1534C116.715 38.9564 116.289 38.6913 115.967 38.358C115.645 38.0246 115.422 37.6553 115.297 37.25L117.149 36.8011C117.232 36.9716 117.354 37.1402 117.513 37.3068C117.672 37.4773 117.886 37.6174 118.155 37.7273C118.428 37.8409 118.77 37.8977 119.183 37.8977C119.767 37.8977 120.25 37.7557 120.632 37.4716C121.015 37.1913 121.206 36.7292 121.206 36.0852V34.4318H121.104C120.998 34.6439 120.842 34.8617 120.638 35.0852C120.437 35.3087 120.17 35.4962 119.837 35.6477C119.507 35.7992 119.092 35.875 118.592 35.875C117.922 35.875 117.314 35.7178 116.768 35.4034C116.227 35.0852 115.795 34.6117 115.473 33.983C115.155 33.3504 114.996 32.5587 114.996 31.608C114.996 30.6496 115.155 29.8409 115.473 29.1818C115.795 28.5189 116.229 28.017 116.774 27.6761C117.32 27.3314 117.928 27.1591 118.598 27.1591C119.109 27.1591 119.53 27.2462 119.859 27.4205C120.193 27.5909 120.458 27.7973 120.655 28.0398C120.852 28.2784 121.001 28.5038 121.104 28.7159H121.217V27.2727H123.246V36.142C123.246 36.8883 123.068 37.5057 122.712 37.9943C122.356 38.483 121.869 38.8485 121.251 39.0909C120.634 39.3333 119.933 39.4545 119.149 39.4545ZM119.166 34.2614C119.602 34.2614 119.973 34.1553 120.28 33.9432C120.587 33.7311 120.82 33.4261 120.979 33.0284C121.138 32.6307 121.217 32.1534 121.217 31.5966C121.217 31.0473 121.138 30.5663 120.979 30.1534C120.823 29.7405 120.592 29.4205 120.286 29.1932C119.982 28.9621 119.609 28.8466 119.166 28.8466C118.708 28.8466 118.325 28.9659 118.018 29.2045C117.712 29.4432 117.481 29.7708 117.325 30.1875C117.17 30.6004 117.092 31.0701 117.092 31.5966C117.092 32.1307 117.17 32.5985 117.325 33C117.484 33.3977 117.717 33.7083 118.024 33.9318C118.335 34.1515 118.715 34.2614 119.166 34.2614Z" fill="#27364B"/>
</svg>
