<svg width="14" height="14" viewBox="0 0 14 14" fill="none" xmlns="http://www.w3.org/2000/svg">
<path d="M13.0423 11.6261C13.4328 12.0166 13.4328 12.6498 13.0423 13.0403C12.6518 13.4308 12.0186 13.4308 11.6281 13.0403L13.0423 11.6261ZM2.66854 5.6665C2.66854 7.32336 4.01169 8.6665 5.66854 8.6665V10.6665C2.90712 10.6665 0.66854 8.42793 0.66854 5.6665H2.66854ZM8.66854 5.6665C8.66854 4.00965 7.32539 2.6665 5.66854 2.6665V0.666504C8.42996 0.666504 10.6685 2.90508 10.6685 5.6665H8.66854ZM5.66854 2.6665C4.01169 2.6665 2.66854 4.00965 2.66854 5.6665H0.66854C0.66854 2.90508 2.90712 0.666504 5.66854 0.666504V2.6665ZM9.20407 7.78782L13.0423 11.6261L11.6281 13.0403L7.78986 9.20204L9.20407 7.78782ZM5.66854 8.6665C6.49724 8.6665 7.24587 8.33181 7.78986 7.78782L9.20407 9.20204C8.30035 10.1058 7.04897 10.6665 5.66854 10.6665V8.6665ZM7.78986 7.78782C8.33385 7.24384 8.66854 6.49521 8.66854 5.6665H10.6685C10.6685 7.04694 10.1078 8.29831 9.20407 9.20204L7.78986 7.78782Z" fill="#94A3B8"/>
</svg>
