<svg width="20" height="23" viewBox="0 0 20 23" fill="none" xmlns="http://www.w3.org/2000/svg">
<path d="M1 12V9.4C1 7.17218 1.94821 5.03561 3.63604 3.4603C5.32387 1.885 7.61305 1 10 1C12.3869 1 14.6761 1.885 16.364 3.4603C18.0518 5.03561 19 7.17218 19 9.4V12" stroke="#94A3B8" stroke-width="2" stroke-linecap="round" stroke-linejoin="round"/>
<path d="M19 15C19 15.5304 18.7893 16.0391 18.4142 16.4142C18.0391 16.7893 17.5304 17 17 17H16C15.4696 17 14.9609 16.7893 14.5858 16.4142C14.2107 16.0391 14 15.5304 14 15V12C14 11.4696 14.2107 10.9609 14.5858 10.5858C14.9609 10.2107 15.4696 10 16 10H19V15ZM1 15C1 15.5304 1.21071 16.0391 1.58579 16.4142C1.96086 16.7893 2.46957 17 3 17H4C4.53043 17 5.03914 16.7893 5.41421 16.4142C5.78929 16.0391 6 15.5304 6 15V12C6 11.4696 5.78929 10.9609 5.41421 10.5858C5.03914 10.2107 4.53043 10 4 10H1V15Z" stroke="#94A3B8" stroke-width="2" stroke-linecap="round" stroke-linejoin="round"/>
<path d="M1 15V17C1 19.2091 2.79086 21 5 21H9M9 21V20.5C9 20.2239 9.22386 20 9.5 20H10.5C10.7761 20 11 20.2239 11 20.5V21.5C11 21.7761 10.7761 22 10.5 22H9.5C9.22386 22 9 21.7761 9 21.5V21Z" stroke="#94A3B8" stroke-width="2"/>
</svg>
