<svg width="40" height="40" viewBox="0 0 40 40" fill="none" xmlns="http://www.w3.org/2000/svg">
<path d="M20.3419 0.00297824C9.29809 -0.185701 0.19166 8.61432 0.00298021 19.6581C-0.10419 25.92 2.68676 31.548 7.13054 35.2906C7.42111 35.037 7.73281 34.8046 8.07922 34.6159L14.0468 31.3608C14.8294 30.9336 15.317 30.1132 15.317 29.2212V26.7759C15.317 26.7759 13.5653 24.6808 12.8973 21.7698C12.3434 21.4113 11.9721 20.7917 11.9721 20.086V17.4098C11.9721 16.8211 12.2339 16.2951 12.6407 15.9268V12.0581C12.6407 12.0581 11.846 6.03771 19.9993 6.03771C28.1525 6.03771 27.3578 12.0581 27.3578 12.0581V15.9268C27.7653 16.2951 28.0264 16.8211 28.0264 17.4098V20.086C28.0264 20.9857 27.4227 21.7426 26.603 21.9955C26.1464 23.4151 25.4876 24.7683 24.6166 25.9985C24.397 26.3087 24.1917 26.5713 24.0121 26.7759V29.283C24.0121 30.2061 24.5336 31.0506 25.3593 31.4627L31.7495 34.6574C32.1329 34.8491 32.4793 35.0914 32.7985 35.3608C37.108 31.7668 39.8921 26.3932 39.9955 20.3419C40.1857 9.29809 31.3864 0.191658 20.3419 0.00297824Z" fill="#CBD4E1"/>
<path d="M14.0475 31.36L8.07995 34.6151C7.72976 34.806 7.41504 35.0408 7.12221 35.2966C10.6015 38.2302 15.0928 40 20 40C24.8709 40 29.3336 38.2566 32.803 35.363C32.483 35.0928 32.1358 34.8498 31.7509 34.6581L25.3607 31.4634C24.5351 31.0506 24.0136 30.2068 24.0136 29.2838V26.7766C24.1932 26.5721 24.3985 26.3094 24.6181 25.9992C25.489 24.769 26.1479 23.4158 26.6045 21.9962C27.4241 21.7434 28.0279 20.9864 28.0279 20.0868V17.4105C28.0279 16.8218 27.766 16.2958 27.3592 15.9275V12.0588C27.3592 12.0588 28.1539 6.03842 20.0007 6.03842C11.8475 6.03842 12.6422 12.0588 12.6422 12.0588V15.9275C12.2347 16.2958 11.9735 16.8218 11.9735 17.4105V20.0868C11.9735 20.7917 12.3441 21.412 12.8988 21.7705C13.5675 24.6815 15.3185 26.7766 15.3185 26.7766V29.2219C15.3177 30.1124 14.8301 30.9328 14.0475 31.36Z" fill="#F1F4F9"/>
</svg>
